<?xml version="1.0" encoding="utf-8"?>
<!-- Generator: Adobe Illustrator 25.2.0, SVG Export Plug-In . SVG Version: 6.00 Build 0)  -->
<svg version="1.1" xmlns="http://www.w3.org/2000/svg" xmlns:xlink="http://www.w3.org/1999/xlink" x="0px" y="0px"
	 viewBox="0 0 36 36" style="enable-background:new 0 0 36 36;" xml:space="preserve">
<style type="text/css">
	.st0{fill:#5C913B;}
	.st1{fill:#77B255;}
	.st2{fill:#FFCC4D;}
	.st3{fill:#FFFFFF;}
	.st4{fill:#20272B;}
	.st5{display:none;}
</style>
<g id="Layer_1">
	<path class="st0" d="M11.4,3.3c6.5-1.3,8.5,1.3,11.7,0.1s0.1,2.8-0.7,3.5c-0.8,0.7-8.1,4.8-11.3,3.3S7.8,4,11.4,3.3z"/>
	<path class="st1" d="M15,16c-0.3,0-0.6-0.1-0.8-0.4c-0.7-0.9-1.3-2-2-3.1C10,8.7,7.4,4.4,0.8,3C0.2,2.9-0.1,2.3,0,1.8
		C0.1,1.2,0.7,0.9,1.2,1C8.7,2.7,11.6,7.6,14,11.5c0.6,1.1,1.2,2,1.8,2.9c0.3,0.4,0.2,1.1-0.2,1.4C15.4,15.9,15.2,16,15,16z"/>
	<path class="st2" d="M34.3,31.5c-0.1,1.1,0.7,2.4-0.4,3.4c-0.6,0.6-2.4-0.1-3.6,0.1h0c-8.1,1.7-13.2,0.6-17.6-2.8
		c3.5-0.6,6.1-3.6,6.1-7.3c0-4.1-3.3-7.4-7.4-7.4c-1.5,0-2.9,0.4-4,1.2c-0.7,0.5-1.4,1.1-1.9,1.8c-0.4-3.5,0.5-6.8,2.1-9.5
		C8,10,7.5,8.2,8.4,7.3c0.1-0.1,0.1-0.1,0.2-0.2c0.9-0.6,2.1-0.2,3.6-0.8C16.8,4.7,23.8,4.6,29.4,9c-3.3,0.2-5.9,3-5.9,6.3
		c0,3.5,2.8,6.4,6.3,6.4c2.4,0,4.4-1.3,5.5-3.2C36.6,23.2,36,28.2,34.3,31.5L34.3,31.5z"/>
	<path class="st1" d="M9.2,14.1c-0.3,1.8-1,3.4-1.8,4.7c-0.7,0.5-1.4,1.1-1.9,1.8c-0.6,0.8-1,1.8-1.3,2.8c0,0,0,0,0,0
		c-1,1.7-2.9,4-2.6,0.4c0.3-3.5-2.9-7.5-0.3-12.7C3.9,6,8.2,6.6,8.2,6.6c0.1,0.1,0.3,0.3,0.4,0.5C9.3,8.3,9.8,10.4,9.2,14.1z"/>
	<path class="st3" d="M17.8,24.5c0,2.5-1.5,4.6-3.5,5.5c-0.8,0.4-1.6,0.6-2.5,0.6c-1.9,0-3.6-0.9-4.7-2.2c-0.9-1-1.4-2.4-1.4-3.9
		c0-3.3,2.7-6.1,6.1-6.1C15,18.5,17.8,21.2,17.8,24.5z"/>
	<path class="st4" d="M14.4,28.8c0,0.4-0.1,0.9-0.2,1.3c-0.8,0.4-1.6,0.6-2.5,0.6c-1.9,0-3.6-0.9-4.7-2.2c0.2-1.9,1.8-3.4,3.7-3.4
		C12.8,25,14.4,26.7,14.4,28.8z"/>
	<path class="st3" d="M33.5,16.1c0,2-1.9,3.6-4.3,3.6c-2.4,0-4.3-1.6-4.3-3.6c0-0.8,0.3-1.6,0.9-2.2c0.8-0.9,2-1.4,3.4-1.4
		c1,0,1.9,0.3,2.7,0.8C32.9,14,33.5,15,33.5,16.1z"/>
	<path class="st4" d="M32,14c0,1.9-1.4,3.4-3,3.4c-1.7,0-3-1.5-3-3.4v-0.1c0.8-0.9,2-1.4,3.4-1.4c1,0,1.9,0.3,2.7,0.8
		C32,13.5,32,13.8,32,14z"/>
</g>
<g id="Layer_2" class="st5">
	
		<image style="display:inline;overflow:visible;opacity:0.47;" width="460" height="460" xlink:href="121412749.png"  transform="matrix(9.794816e-02 0 0 9.794816e-02 -4.5281 -4.054)">
	</image>
</g>
</svg>
