<svg width="512" height="512" viewBox="0 0 512 512" fill="none" xmlns="http://www.w3.org/2000/svg">
	<g clip-path="url(#clip0_1_2)">
		<path d="M212.766 159.889C255.246 151.531 268.18 168.182 289.171 160.44C310.162 152.698 289.781 178.926 284.287 183.437C278.781 187.947 230.918 214.962 210.164 205.057C189.409 195.151 189.304 164.504 212.766 159.889Z" fill="#5C913B"/>
		<path d="M236.34 242.889C234.347 242.889 232.374 241.984 231.089 240.267C226.585 234.262 222.514 227.451 218.207 220.233C203.339 195.355 186.485 167.146 143.133 157.509C139.6 156.723 137.371 153.222 138.157 149.689C138.944 146.149 142.445 143.933 145.978 144.713C194.843 155.569 214.038 187.698 229.463 213.513C233.593 220.423 237.487 226.946 241.578 232.4C243.754 235.298 243.164 239.408 240.267 241.578C239.087 242.463 237.71 242.889 236.34 242.889Z" fill="#77B255"/>
		<path fill-rule="evenodd" clip-rule="evenodd" d="M362.856 344.723C362.863 344.658 362.855 344.606 362.847 344.555C362.842 344.518 362.836 344.482 362.836 344.441C373.883 323.196 377.912 291.202 370.566 260.551C363.066 272.23 349.962 279.969 335.051 279.969C311.758 279.969 292.875 261.086 292.875 237.793C292.875 216.416 308.778 198.754 329.399 195.993C292.958 168.135 247.964 169.036 217.873 179.411C213.357 181.167 209.142 181.474 205.336 181.75C200.418 182.107 196.182 182.415 192.863 185.738C189.329 189.272 189.259 195.156 189.191 200.843C189.148 204.449 189.106 207.975 188.183 210.773C176.76 229.525 171.15 253.471 175.055 277.869C183.154 263.703 198.411 254.156 215.898 254.156C241.864 254.156 262.914 275.206 262.914 301.172C262.914 326.053 243.587 346.42 219.127 348.078C248.439 371.473 282.618 379.201 336.784 367.91C336.792 367.902 336.802 367.901 336.814 367.9C336.821 367.9 336.829 367.899 336.837 367.897C340.002 367.296 343.926 367.807 347.711 368.3H347.712C352.925 368.979 357.874 369.624 360.214 367.281C365.09 362.405 364.232 356.949 363.409 351.713C363.032 349.311 362.662 346.956 362.856 344.723Z" fill="#FFCC4D"/>
		<path d="M191.808 181.155C191.808 181.155 163.816 177.287 146.857 211.304C129.897 245.314 150.672 271.124 148.758 294.252C146.837 317.393 159.024 302.544 165.94 291.334C172.856 280.124 193.67 259.245 198.311 230.571C202.946 201.884 197.852 188.235 191.808 181.155Z" fill="#77B255"/>
		<mask id="mask0_1_2" style="mask-type:alpha" maskUnits="userSpaceOnUse" x="174" y="254" width="84" height="83">
			<circle cx="216.129" cy="295.41" r="41.2539" fill="#D9D9D9"/>
		</mask>
		<g mask="url(#mask0_1_2)">
			<circle cx="207.602" cy="327.445" r="26.2734" fill="#21262A"/>
		</g>
		<mask id="mask1_1_2" style="mask-type:alpha" maskUnits="userSpaceOnUse" x="296" y="221" width="66" height="71">
			<ellipse cx="32.9101" cy="35.0013" rx="32.9101" ry="35.0013" transform="matrix(-0.925368 0.379069 -0.328313 -0.944569 371.234 277.143)" fill="#D9D9D9"/>
		</mask>
		<g mask="url(#mask1_1_2)">
			<ellipse cx="20.9595" cy="22.2913" rx="20.9595" ry="22.2913" transform="matrix(-0.925368 0.379069 -0.328313 -0.944569 353.374 241.416)" fill="#21262A"/>
		</g>
	</g>
	<defs>
		<clipPath id="clip0_1_2">
			<rect width="236" height="236" fill="white" transform="translate(138 138)"/>
		</clipPath>
	</defs>
</svg>
