<svg width="512" height="512" viewBox="0 0 512 512" fill="none" xmlns="http://www.w3.org/2000/svg">
	<g clip-path="url(#clip0_1_2)">
		<path d="M179.058 84.955C254.658 70.08 277.677 99.7133 315.033 85.935C352.39 72.1567 316.118 118.835 306.342 126.862C296.542 134.888 211.363 182.967 174.427 165.338C137.49 147.71 137.303 93.1683 179.058 84.955Z" fill="#5C913B"/>
		<path d="M221.012 232.667C217.465 232.667 213.953 231.057 211.667 228C203.652 217.313 196.407 205.192 188.742 192.347C162.282 148.072 132.287 97.87 55.135 80.72C48.8467 79.32 44.88 73.09 46.28 66.8017C47.68 60.5017 53.91 56.5583 60.1983 57.9467C147.162 77.2667 181.322 134.445 208.773 180.388C216.123 192.685 223.053 204.293 230.333 214C234.207 219.157 233.157 226.472 228 230.333C225.9 231.908 223.45 232.667 221.012 232.667Z" fill="#77B255"/>
		<path fill-rule="evenodd" clip-rule="evenodd" d="M446.152 413.597C446.142 413.532 446.132 413.468 446.132 413.395C465.791 375.585 472.962 318.648 459.889 264.098C446.541 284.885 423.221 298.656 396.684 298.656C355.23 298.656 321.625 265.051 321.625 223.598C321.625 185.554 349.928 154.122 386.626 149.207C321.773 99.6297 241.699 101.233 188.147 119.698C180.11 122.823 172.609 123.368 165.835 123.86C157.082 124.496 149.545 125.044 143.638 130.957C137.348 137.247 137.223 147.719 137.103 157.84C137.026 164.257 136.952 170.532 135.308 175.512C114.979 208.883 104.996 251.499 111.945 294.92C126.359 269.709 153.512 252.719 184.633 252.719C230.844 252.719 268.305 290.18 268.305 336.391C268.305 380.67 233.909 416.916 190.378 419.868C242.544 461.504 303.372 475.255 399.768 455.162C399.782 455.148 399.801 455.146 399.821 455.145C399.834 455.144 399.848 455.143 399.862 455.138C405.495 454.069 412.479 454.978 419.216 455.856C428.493 457.065 437.301 458.212 441.465 454.042C450.143 445.364 448.617 435.656 447.152 426.337C446.481 422.063 445.822 417.87 446.167 413.897C446.18 413.781 446.166 413.689 446.152 413.597Z" fill="#FFCC4D"/>
		<path d="M141.76 122.802C141.76 122.802 91.9433 115.918 61.7617 176.457C31.58 236.983 68.5517 282.915 65.145 324.075C61.7267 365.258 83.415 338.833 95.7233 318.883C108.032 298.933 145.073 261.775 153.333 210.745C161.582 159.692 152.517 135.402 141.76 122.802Z" fill="#77B255"/>
		<mask id="mask0_1_2" style="mask-type:alpha" maskUnits="userSpaceOnUse" x="111" y="252" width="148" height="148">
			<circle cx="185.043" cy="326.137" r="73.418" fill="#D9D9D9"/>
		</mask>
		<g mask="url(#mask0_1_2)">
			<circle cx="169.867" cy="383.148" r="46.7578" fill="#21262A"/>
		</g>
		<mask id="mask1_1_2" style="mask-type:alpha" maskUnits="userSpaceOnUse" x="328" y="194" width="117" height="126">
			<ellipse cx="58.5688" cy="62.2905" rx="58.5688" ry="62.2905" transform="matrix(-0.925368 0.379069 -0.328313 -0.944569 461.078 293.628)" fill="#D9D9D9"/>
		</mask>
		<g mask="url(#mask1_1_2)">
			<ellipse cx="37.3008" cy="39.671" rx="37.3008" ry="39.671" transform="matrix(-0.925368 0.379069 -0.328313 -0.944569 429.293 230.046)" fill="#21262A"/>
		</g>
	</g>
	<defs>
		<clipPath id="clip0_1_2">
			<rect width="420" height="420" fill="white" transform="translate(46 46)"/>
		</clipPath>
	</defs>
</svg>
